<svg width="122" height="27" viewBox="0 0 122 27" fill="none" xmlns="http://www.w3.org/2000/svg">
<path d="M96.031 12.7403C96.0601 13.3887 96.3354 14.0008 96.7995 14.4492C97.2637 14.8977 97.8808 15.1479 98.5228 15.1479C99.1648 15.1479 99.7821 14.8977 100.246 14.4492C100.71 14.0008 100.986 13.3887 101.015 12.7403C101.015 11.3377 100.013 10.3507 98.5486 10.3507C97.0843 10.3507 96.031 11.2857 96.031 12.7403ZM101.631 21C101.631 19.4416 100.424 18.3507 98.5486 18.3507C96.6733 18.3507 95.4658 19.4156 95.4658 21C95.4658 22.4805 96.776 23.6493 98.5486 23.6493C100.321 23.6493 101.631 22.4805 101.631 21ZM104.534 10.7403C104.804 11.2883 104.936 11.8948 104.92 12.5065C104.92 13.987 104.149 15.3636 102.916 16.4286C104.611 17.2597 105.613 19.2338 105.613 21.1299C105.613 24.6623 102.787 27 98.4972 27C94.2071 27 91.3811 24.6623 91.3811 21.1039C91.3601 20.1453 91.6009 19.1995 92.0767 18.3701C92.5526 17.5408 93.2452 16.86 94.0786 16.4026C92.7941 15.3377 92.0748 13.987 92.0748 12.4805C92.0748 9.38964 94.4639 7.1299 98.266 7.1299C100.501 7.1299 101.169 7.51951 102.453 7.51951C103.325 7.55828 104.187 7.32229 104.92 6.84419C105.173 6.67646 105.465 6.57802 105.767 6.55847C106.281 6.55847 106.538 7.07795 106.538 7.70133C106.598 8.36317 106.432 9.0258 106.067 9.57879C105.703 10.1318 105.162 10.5417 104.534 10.7403ZM117.584 13.987C117.584 12.0649 116.377 10.6624 114.502 10.6624C112.626 10.6624 111.419 12.0649 111.419 13.987C111.419 15.9091 112.626 17.3117 114.502 17.3117C116.377 17.3117 117.584 15.9351 117.584 13.987ZM107.257 13.987C107.257 9.88315 110.34 6.97406 114.45 6.97406C118.561 6.97406 121.643 9.85717 121.643 13.987C121.643 18.1169 118.561 21 114.45 21C110.34 21 107.257 18.0649 107.257 13.987Z" fill="#1CB0F6"/>
<path d="M25.8268 13.513C25.8268 11.5909 24.6198 10.1883 22.7448 10.1883C20.8688 10.1883 19.6617 11.5909 19.6617 13.513C19.6617 15.4351 20.8688 16.8377 22.7448 16.8377C24.6198 16.8377 25.8268 15.4611 25.8268 13.513ZM15.5 13.513C15.5 9.40909 18.5827 6.5 22.6928 6.5C26.8038 6.5 29.8858 9.38311 29.8858 13.513C29.8858 17.6429 26.8038 20.526 22.6928 20.526C18.5827 20.526 15.5 17.5909 15.5 13.513Z" fill="#1CB0F6"/>
<path d="M44.4614 19.3377V8.37662C44.4614 7.38961 44.0247 7 43.0999 7H41.7383C40.8135 7 40.3768 7.38961 40.3768 8.37662V13.052C40.3768 14.3766 40.0942 15.2338 39.6061 15.7792C39.3607 16.0468 39.0623 16.2592 38.7303 16.4024C38.3983 16.5456 38.0402 16.6165 37.6793 16.6104C37.3437 16.6294 37.0078 16.5767 36.6936 16.4559C36.3793 16.3351 36.0938 16.1488 35.8554 15.9091C35.3673 15.3636 35.0847 14.5325 35.0847 12.974V8.37662C35.0847 7.38961 34.725 7 33.7231 7H32.3616C31.3597 7 31 7.44155 31 8.37662V13.3636C31 15.961 31.6423 17.7533 32.8497 18.9221C33.9981 19.962 35.4959 20.5195 37.0371 20.4805C37.8477 20.497 38.6521 20.3334 39.3934 20.0013C40.1346 19.6692 40.7948 19.1767 41.3273 18.5584C42.0209 19.6494 42.9971 20.2468 43.6907 20.2468C44.1531 20.2468 44.4614 19.961 44.4614 19.3377Z" fill="#1CB0F6"/>
<path fill-rule="evenodd" clip-rule="evenodd" d="M14.4633 0.909096V18.6754C14.4633 19.2987 14.155 19.5845 13.6926 19.5845C12.999 19.5845 12.0228 18.9871 11.3291 17.9481C10.4814 18.9351 8.73448 19.8442 6.73069 19.8442C2.69741 19.8442 0 16.8572 0 12.8312C0 8.8052 2.77448 5.81819 6.73069 5.81819C8.05647 5.82063 9.35213 6.21815 10.4557 6.96104V5.09091C10.4557 1.84416 12.2796 0 13.744 0C14.2064 0 14.4633 0.311688 14.4633 0.909096ZM7.32155 9.5065C9.06844 9.5065 10.4557 10.8312 10.4557 12.8312C10.4557 14.8572 9.06844 16.1559 7.29586 16.1559C5.52327 16.1559 4.13603 14.8312 4.13603 12.8312C4.13603 10.8312 5.57465 9.5065 7.32155 9.5065Z" fill="#1CB0F6"/>
<path d="M71.8268 13.513C71.8268 11.5909 70.6198 10.1883 68.7448 10.1883C66.8688 10.1883 65.6617 11.5909 65.6617 13.513C65.6617 15.4351 66.8688 16.8377 68.7448 16.8377C70.6198 16.8377 71.8268 15.4611 71.8268 13.513ZM61.5 13.513C61.5 9.40909 64.5827 6.5 68.6928 6.5C72.8038 6.5 75.8858 9.38311 75.8858 13.513C75.8858 17.6429 72.8038 20.526 68.6928 20.526C64.5827 20.526 61.5 17.5909 61.5 13.513Z" fill="#1CB0F6"/>
<path d="M90.4614 19.3377V8.37662C90.4614 7.38961 90.0247 7 89.0999 7H87.7383C86.8135 7 86.3768 7.38961 86.3768 8.37662V13.052C86.3768 14.3766 86.0942 15.2338 85.6061 15.7792C85.3607 16.0468 85.0623 16.2592 84.7303 16.4024C84.3983 16.5456 84.0402 16.6165 83.6793 16.6104C83.3437 16.6294 83.0078 16.5767 82.6936 16.4559C82.3793 16.3351 82.0938 16.1488 81.8554 15.9091C81.3673 15.3636 81.0847 14.5325 81.0847 12.974V8.37662C81.0847 7.38961 80.725 7 79.7231 7H78.3616C77.3597 7 77 7.44155 77 8.37662V13.3636C77 15.961 77.6423 17.7533 78.8497 18.9221C79.9981 19.962 81.4959 20.5195 83.0371 20.4805C83.8477 20.497 84.6521 20.3334 85.3934 20.0013C86.1346 19.6692 86.7948 19.1767 87.3273 18.5584C88.0209 19.6494 88.9971 20.2468 89.6907 20.2468C90.1531 20.2468 90.4614 19.961 90.4614 19.3377Z" fill="#1CB0F6"/>
<path fill-rule="evenodd" clip-rule="evenodd" d="M60.4633 0.909096V18.6754C60.4633 19.2987 60.155 19.5845 59.6926 19.5845C58.999 19.5845 58.0228 18.9871 57.3291 17.9481C56.4814 18.9351 54.7345 19.8442 52.7307 19.8442C48.6974 19.8442 46 16.8572 46 12.8312C46 8.8052 48.7745 5.81819 52.7307 5.81819C54.0565 5.82063 55.3521 6.21815 56.4557 6.96104V5.09091C56.4557 1.84416 58.2796 0 59.744 0C60.2064 0 60.4633 0.311688 60.4633 0.909096ZM53.3215 9.5065C55.0684 9.5065 56.4557 10.8312 56.4557 12.8312C56.4557 14.8572 55.0684 16.1559 53.2959 16.1559C51.5233 16.1559 50.136 14.8312 50.136 12.8312C50.136 10.8312 51.5746 9.5065 53.3215 9.5065Z" fill="#1CB0F6"/>
</svg>
